<mxfile host="Electron" modified="2024-04-19T23:16:16.709Z" agent="Mozilla/5.0 (Windows NT 10.0; Win64; x64) AppleWebKit/537.36 (KHTML, like Gecko) draw.io/24.2.5 Chrome/120.0.6099.109 Electron/28.1.0 Safari/537.36" etag="LY1GfIWCiQF91LgKC5o7" version="24.2.5" type="device">
  <diagram name="ページ1" id="LE8fIzdrHe0wcv1LTvfw">
    <mxGraphModel dx="2474" dy="1480" grid="1" gridSize="10" guides="1" tooltips="1" connect="1" arrows="1" fold="1" page="1" pageScale="1" pageWidth="1600" pageHeight="1200" math="0" shadow="0">
      <root>
        <mxCell id="0" />
        <mxCell id="cFaB45KztUIKXS-_cTrr-4" value="背景" style="locked=1;" parent="0" visible="0" />
        <mxCell id="cFaB45KztUIKXS-_cTrr-5" value="" style="rounded=0;whiteSpace=wrap;html=1;strokeWidth=3;" parent="cFaB45KztUIKXS-_cTrr-4" vertex="1">
          <mxGeometry x="1" y="1" width="1595" height="1180" as="geometry" />
        </mxCell>
        <mxCell id="cFaB45KztUIKXS-_cTrr-6" value="" style="rounded=0;whiteSpace=wrap;html=1;fillColor=#B3B3B3;fontColor=#333333;strokeColor=#666666;" parent="cFaB45KztUIKXS-_cTrr-4" vertex="1">
          <mxGeometry width="1595" height="60" as="geometry" />
        </mxCell>
        <mxCell id="cFaB45KztUIKXS-_cTrr-7" value="&lt;font style=&quot;font-size: 48px;&quot;&gt;×&lt;/font&gt;" style="rounded=0;whiteSpace=wrap;html=1;" parent="cFaB45KztUIKXS-_cTrr-4" vertex="1">
          <mxGeometry x="1550" y="10" width="40" height="40" as="geometry" />
        </mxCell>
        <mxCell id="cFaB45KztUIKXS-_cTrr-8" value="" style="rounded=0;whiteSpace=wrap;html=1;" parent="cFaB45KztUIKXS-_cTrr-4" vertex="1">
          <mxGeometry x="830" y="670" width="120" height="60" as="geometry" />
        </mxCell>
        <mxCell id="cFaB45KztUIKXS-_cTrr-9" value="ウインドウ" style="" parent="0" />
        <mxCell id="cFaB45KztUIKXS-_cTrr-10" value="" style="rounded=0;whiteSpace=wrap;html=1;strokeWidth=3;" parent="cFaB45KztUIKXS-_cTrr-9" vertex="1">
          <mxGeometry x="1" y="1" width="1589" height="1739" as="geometry" />
        </mxCell>
        <mxCell id="cFaB45KztUIKXS-_cTrr-11" value="" style="rounded=0;whiteSpace=wrap;html=1;fillColor=#B3B3B3;fontColor=#333333;strokeColor=#666666;" parent="cFaB45KztUIKXS-_cTrr-9" vertex="1">
          <mxGeometry width="1595" height="60" as="geometry" />
        </mxCell>
        <mxCell id="cFaB45KztUIKXS-_cTrr-12" value="&lt;font style=&quot;font-size: 48px;&quot;&gt;×&lt;/font&gt;" style="rounded=0;whiteSpace=wrap;html=1;" parent="cFaB45KztUIKXS-_cTrr-9" vertex="1">
          <mxGeometry x="1550" y="10" width="40" height="40" as="geometry" />
        </mxCell>
        <mxCell id="i52_y_vSOhC8-coXRYyu-64" value="&lt;span style=&quot;font-size: 30px;&quot;&gt;ヘッダの有無&lt;/span&gt;" style="rounded=0;whiteSpace=wrap;html=1;align=right;dashed=1;dashPattern=8 8;verticalAlign=top;" vertex="1" parent="cFaB45KztUIKXS-_cTrr-9">
          <mxGeometry x="19" y="1119" width="310" height="51" as="geometry" />
        </mxCell>
        <mxCell id="cFaB45KztUIKXS-_cTrr-14" value="名称未設定レイヤ" style="" parent="0" />
        <mxCell id="kxWkAaZomFuKM2yIZcbC-109" value="&lt;span style=&quot;font-size: 30px;&quot;&gt;ざくざく&lt;/span&gt;" style="rounded=0;whiteSpace=wrap;html=1;align=left;verticalAlign=top;" parent="cFaB45KztUIKXS-_cTrr-14" vertex="1">
          <mxGeometry x="360" y="160" width="650" height="80" as="geometry" />
        </mxCell>
        <mxCell id="kxWkAaZomFuKM2yIZcbC-110" value="&lt;span style=&quot;font-size: 30px;&quot;&gt;検索結果&lt;/span&gt;" style="rounded=0;whiteSpace=wrap;html=1;align=left;dashed=1;dashPattern=8 8;verticalAlign=bottom;" parent="cFaB45KztUIKXS-_cTrr-14" vertex="1">
          <mxGeometry x="30" y="336" width="310" height="46" as="geometry" />
        </mxCell>
        <mxCell id="5l2hKBXCzOEWmYN1dR5e-3" value="&lt;span style=&quot;font-size: 30px;&quot;&gt;検索&lt;/span&gt;" style="rounded=1;whiteSpace=wrap;html=1;" parent="cFaB45KztUIKXS-_cTrr-14" vertex="1">
          <mxGeometry x="1053" y="270" width="210" height="51" as="geometry" />
        </mxCell>
        <mxCell id="cdmeLEnnqN9o7mxTk7t2-22" value="&lt;span style=&quot;font-size: 30px;&quot;&gt;各種Pay名称&lt;br&gt;&lt;/span&gt;" style="rounded=0;whiteSpace=wrap;html=1;align=right;dashed=1;dashPattern=8 8;verticalAlign=top;" parent="cFaB45KztUIKXS-_cTrr-14" vertex="1">
          <mxGeometry x="29" y="159" width="310" height="81" as="geometry" />
        </mxCell>
        <mxCell id="cdmeLEnnqN9o7mxTk7t2-26" value="&lt;span style=&quot;font-size: 30px;&quot;&gt;最初&lt;/span&gt;" style="rounded=1;whiteSpace=wrap;html=1;" parent="cFaB45KztUIKXS-_cTrr-14" vertex="1">
          <mxGeometry x="390" y="670" width="110" height="51" as="geometry" />
        </mxCell>
        <mxCell id="cdmeLEnnqN9o7mxTk7t2-27" value="&lt;span style=&quot;font-size: 30px;&quot;&gt;最後&lt;/span&gt;" style="rounded=1;whiteSpace=wrap;html=1;" parent="cFaB45KztUIKXS-_cTrr-14" vertex="1">
          <mxGeometry x="1420" y="670" width="110" height="51" as="geometry" />
        </mxCell>
        <mxCell id="cdmeLEnnqN9o7mxTk7t2-28" value="&lt;span style=&quot;font-size: 30px;&quot;&gt;1&lt;/span&gt;" style="rounded=1;whiteSpace=wrap;html=1;" parent="cFaB45KztUIKXS-_cTrr-14" vertex="1">
          <mxGeometry x="648" y="670" width="110" height="51" as="geometry" />
        </mxCell>
        <mxCell id="cdmeLEnnqN9o7mxTk7t2-29" value="&lt;span style=&quot;font-size: 30px;&quot;&gt;2&lt;/span&gt;" style="rounded=1;whiteSpace=wrap;html=1;" parent="cFaB45KztUIKXS-_cTrr-14" vertex="1">
          <mxGeometry x="776" y="670" width="110" height="51" as="geometry" />
        </mxCell>
        <mxCell id="cdmeLEnnqN9o7mxTk7t2-30" value="&lt;span style=&quot;font-size: 30px;&quot;&gt;3&lt;/span&gt;" style="rounded=1;whiteSpace=wrap;html=1;" parent="cFaB45KztUIKXS-_cTrr-14" vertex="1">
          <mxGeometry x="905" y="671" width="110" height="51" as="geometry" />
        </mxCell>
        <mxCell id="cdmeLEnnqN9o7mxTk7t2-31" value="&lt;span style=&quot;font-size: 30px;&quot;&gt;4&lt;/span&gt;" style="rounded=1;whiteSpace=wrap;html=1;" parent="cFaB45KztUIKXS-_cTrr-14" vertex="1">
          <mxGeometry x="1034" y="671" width="110" height="51" as="geometry" />
        </mxCell>
        <mxCell id="cdmeLEnnqN9o7mxTk7t2-32" value="&lt;span style=&quot;font-size: 30px;&quot;&gt;5&lt;/span&gt;" style="rounded=1;whiteSpace=wrap;html=1;" parent="cFaB45KztUIKXS-_cTrr-14" vertex="1">
          <mxGeometry x="1163" y="671" width="110" height="51" as="geometry" />
        </mxCell>
        <mxCell id="cdmeLEnnqN9o7mxTk7t2-35" value="&lt;span style=&quot;font-size: 30px;&quot;&gt;&amp;gt;&amp;gt;&lt;/span&gt;" style="rounded=1;whiteSpace=wrap;html=1;" parent="cFaB45KztUIKXS-_cTrr-14" vertex="1">
          <mxGeometry x="1291" y="671" width="110" height="51" as="geometry" />
        </mxCell>
        <mxCell id="cdmeLEnnqN9o7mxTk7t2-36" value="&lt;span style=&quot;font-size: 30px;&quot;&gt;&amp;lt;&amp;lt;&lt;/span&gt;" style="rounded=1;whiteSpace=wrap;html=1;" parent="cFaB45KztUIKXS-_cTrr-14" vertex="1">
          <mxGeometry x="519" y="671" width="110" height="51" as="geometry" />
        </mxCell>
        <mxCell id="cdmeLEnnqN9o7mxTk7t2-40" value="&lt;div style=&quot;&quot;&gt;&lt;font style=&quot;font-size: 30px;&quot;&gt;スクロール&lt;/font&gt;&lt;/div&gt;" style="rounded=0;whiteSpace=wrap;html=1;align=left;verticalAlign=top;fillColor=#FFFFCC;rotation=90;" parent="cFaB45KztUIKXS-_cTrr-14" vertex="1">
          <mxGeometry x="686" y="476" width="199" height="49" as="geometry" />
        </mxCell>
        <mxCell id="glqgW6hR8bMLOD4vA2c3-0" value="" style="shape=table;startSize=0;container=1;collapsible=0;childLayout=tableLayout;fontSize=16;" parent="cFaB45KztUIKXS-_cTrr-14" vertex="1">
          <mxGeometry x="24" y="400.5" width="736" height="200" as="geometry" />
        </mxCell>
        <mxCell id="glqgW6hR8bMLOD4vA2c3-1" value="" style="shape=tableRow;horizontal=0;startSize=0;swimlaneHead=0;swimlaneBody=0;strokeColor=inherit;top=0;left=0;bottom=0;right=0;collapsible=0;dropTarget=0;fillColor=none;points=[[0,0.5],[1,0.5]];portConstraint=eastwest;fontSize=16;" parent="glqgW6hR8bMLOD4vA2c3-0" vertex="1">
          <mxGeometry width="736" height="40" as="geometry" />
        </mxCell>
        <mxCell id="glqgW6hR8bMLOD4vA2c3-2" value="" style="shape=partialRectangle;html=1;whiteSpace=wrap;connectable=0;strokeColor=inherit;overflow=hidden;fillColor=none;top=0;left=0;bottom=0;right=0;pointerEvents=1;fontSize=16;" parent="glqgW6hR8bMLOD4vA2c3-1" vertex="1">
          <mxGeometry width="50" height="40" as="geometry">
            <mxRectangle width="50" height="40" as="alternateBounds" />
          </mxGeometry>
        </mxCell>
        <mxCell id="glqgW6hR8bMLOD4vA2c3-3" value="&lt;font style=&quot;font-size: 30px;&quot;&gt;関連者コード&lt;/font&gt;" style="shape=partialRectangle;html=1;whiteSpace=wrap;connectable=0;strokeColor=inherit;overflow=hidden;fillColor=none;top=0;left=0;bottom=0;right=0;pointerEvents=1;fontSize=16;" parent="glqgW6hR8bMLOD4vA2c3-1" vertex="1">
          <mxGeometry x="50" width="190" height="40" as="geometry">
            <mxRectangle width="190" height="40" as="alternateBounds" />
          </mxGeometry>
        </mxCell>
        <mxCell id="glqgW6hR8bMLOD4vA2c3-4" value="&lt;font style=&quot;font-size: 30px;&quot;&gt;各種Pay&lt;/font&gt;&lt;span style=&quot;font-size: 30px; background-color: initial;&quot;&gt;名&lt;/span&gt;" style="shape=partialRectangle;html=1;whiteSpace=wrap;connectable=0;strokeColor=inherit;overflow=hidden;fillColor=none;top=0;left=0;bottom=0;right=0;pointerEvents=1;fontSize=16;" parent="glqgW6hR8bMLOD4vA2c3-1" vertex="1">
          <mxGeometry x="240" width="496" height="40" as="geometry">
            <mxRectangle width="496" height="40" as="alternateBounds" />
          </mxGeometry>
        </mxCell>
        <mxCell id="glqgW6hR8bMLOD4vA2c3-7" value="" style="shape=tableRow;horizontal=0;startSize=0;swimlaneHead=0;swimlaneBody=0;strokeColor=inherit;top=0;left=0;bottom=0;right=0;collapsible=0;dropTarget=0;fillColor=none;points=[[0,0.5],[1,0.5]];portConstraint=eastwest;fontSize=16;" parent="glqgW6hR8bMLOD4vA2c3-0" vertex="1">
          <mxGeometry y="40" width="736" height="40" as="geometry" />
        </mxCell>
        <mxCell id="glqgW6hR8bMLOD4vA2c3-8" value="" style="shape=partialRectangle;html=1;whiteSpace=wrap;connectable=0;strokeColor=inherit;overflow=hidden;fillColor=none;top=0;left=0;bottom=0;right=0;pointerEvents=1;fontSize=16;" parent="glqgW6hR8bMLOD4vA2c3-7" vertex="1">
          <mxGeometry width="50" height="40" as="geometry">
            <mxRectangle width="50" height="40" as="alternateBounds" />
          </mxGeometry>
        </mxCell>
        <mxCell id="glqgW6hR8bMLOD4vA2c3-9" value="&lt;font style=&quot;font-size: 30px;&quot;&gt;1122&lt;/font&gt;" style="shape=partialRectangle;html=1;whiteSpace=wrap;connectable=0;strokeColor=inherit;overflow=hidden;fillColor=none;top=0;left=0;bottom=0;right=0;pointerEvents=1;fontSize=16;" parent="glqgW6hR8bMLOD4vA2c3-7" vertex="1">
          <mxGeometry x="50" width="190" height="40" as="geometry">
            <mxRectangle width="190" height="40" as="alternateBounds" />
          </mxGeometry>
        </mxCell>
        <mxCell id="glqgW6hR8bMLOD4vA2c3-10" value="&lt;span style=&quot;font-size: 30px;&quot;&gt;ざくざくポイントPay&lt;/span&gt;" style="shape=partialRectangle;html=1;whiteSpace=wrap;connectable=0;strokeColor=inherit;overflow=hidden;fillColor=none;top=0;left=0;bottom=0;right=0;pointerEvents=1;fontSize=16;align=left;" parent="glqgW6hR8bMLOD4vA2c3-7" vertex="1">
          <mxGeometry x="240" width="496" height="40" as="geometry">
            <mxRectangle width="496" height="40" as="alternateBounds" />
          </mxGeometry>
        </mxCell>
        <mxCell id="glqgW6hR8bMLOD4vA2c3-13" value="" style="shape=tableRow;horizontal=0;startSize=0;swimlaneHead=0;swimlaneBody=0;strokeColor=inherit;top=0;left=0;bottom=0;right=0;collapsible=0;dropTarget=0;fillColor=none;points=[[0,0.5],[1,0.5]];portConstraint=eastwest;fontSize=16;align=left;" parent="glqgW6hR8bMLOD4vA2c3-0" vertex="1">
          <mxGeometry y="80" width="736" height="40" as="geometry" />
        </mxCell>
        <mxCell id="glqgW6hR8bMLOD4vA2c3-14" value="" style="shape=partialRectangle;html=1;whiteSpace=wrap;connectable=0;strokeColor=inherit;overflow=hidden;fillColor=none;top=0;left=0;bottom=0;right=0;pointerEvents=1;fontSize=16;" parent="glqgW6hR8bMLOD4vA2c3-13" vertex="1">
          <mxGeometry width="50" height="40" as="geometry">
            <mxRectangle width="50" height="40" as="alternateBounds" />
          </mxGeometry>
        </mxCell>
        <mxCell id="glqgW6hR8bMLOD4vA2c3-15" value="&lt;font style=&quot;font-size: 30px;&quot;&gt;3344&lt;/font&gt;" style="shape=partialRectangle;html=1;whiteSpace=wrap;connectable=0;strokeColor=inherit;overflow=hidden;fillColor=none;top=0;left=0;bottom=0;right=0;pointerEvents=1;fontSize=16;" parent="glqgW6hR8bMLOD4vA2c3-13" vertex="1">
          <mxGeometry x="50" width="190" height="40" as="geometry">
            <mxRectangle width="190" height="40" as="alternateBounds" />
          </mxGeometry>
        </mxCell>
        <mxCell id="glqgW6hR8bMLOD4vA2c3-16" value="&lt;font style=&quot;font-size: 30px;&quot;&gt;二次元コード専用Pay&lt;br&gt;&lt;/font&gt;" style="shape=partialRectangle;html=1;whiteSpace=wrap;connectable=0;strokeColor=inherit;overflow=hidden;fillColor=none;top=0;left=0;bottom=0;right=0;pointerEvents=1;fontSize=16;align=left;" parent="glqgW6hR8bMLOD4vA2c3-13" vertex="1">
          <mxGeometry x="240" width="496" height="40" as="geometry">
            <mxRectangle width="496" height="40" as="alternateBounds" />
          </mxGeometry>
        </mxCell>
        <mxCell id="glqgW6hR8bMLOD4vA2c3-19" style="shape=tableRow;horizontal=0;startSize=0;swimlaneHead=0;swimlaneBody=0;strokeColor=inherit;top=0;left=0;bottom=0;right=0;collapsible=0;dropTarget=0;fillColor=none;points=[[0,0.5],[1,0.5]];portConstraint=eastwest;fontSize=16;" parent="glqgW6hR8bMLOD4vA2c3-0" vertex="1">
          <mxGeometry y="120" width="736" height="40" as="geometry" />
        </mxCell>
        <mxCell id="glqgW6hR8bMLOD4vA2c3-20" style="shape=partialRectangle;html=1;whiteSpace=wrap;connectable=0;strokeColor=inherit;overflow=hidden;fillColor=none;top=0;left=0;bottom=0;right=0;pointerEvents=1;fontSize=16;" parent="glqgW6hR8bMLOD4vA2c3-19" vertex="1">
          <mxGeometry width="50" height="40" as="geometry">
            <mxRectangle width="50" height="40" as="alternateBounds" />
          </mxGeometry>
        </mxCell>
        <mxCell id="glqgW6hR8bMLOD4vA2c3-21" value="&lt;font style=&quot;font-size: 30px;&quot;&gt;4455&lt;/font&gt;" style="shape=partialRectangle;html=1;whiteSpace=wrap;connectable=0;strokeColor=inherit;overflow=hidden;fillColor=none;top=0;left=0;bottom=0;right=0;pointerEvents=1;fontSize=16;" parent="glqgW6hR8bMLOD4vA2c3-19" vertex="1">
          <mxGeometry x="50" width="190" height="40" as="geometry">
            <mxRectangle width="190" height="40" as="alternateBounds" />
          </mxGeometry>
        </mxCell>
        <mxCell id="glqgW6hR8bMLOD4vA2c3-22" value="&lt;font style=&quot;font-size: 30px;&quot;&gt;きつねが木の葉でお支払いPay&lt;br&gt;&lt;/font&gt;" style="shape=partialRectangle;html=1;whiteSpace=wrap;connectable=0;strokeColor=inherit;overflow=hidden;fillColor=none;top=0;left=0;bottom=0;right=0;pointerEvents=1;fontSize=16;align=left;" parent="glqgW6hR8bMLOD4vA2c3-19" vertex="1">
          <mxGeometry x="240" width="496" height="40" as="geometry">
            <mxRectangle width="496" height="40" as="alternateBounds" />
          </mxGeometry>
        </mxCell>
        <mxCell id="glqgW6hR8bMLOD4vA2c3-25" style="shape=tableRow;horizontal=0;startSize=0;swimlaneHead=0;swimlaneBody=0;strokeColor=inherit;top=0;left=0;bottom=0;right=0;collapsible=0;dropTarget=0;fillColor=none;points=[[0,0.5],[1,0.5]];portConstraint=eastwest;fontSize=16;" parent="glqgW6hR8bMLOD4vA2c3-0" vertex="1">
          <mxGeometry y="160" width="736" height="40" as="geometry" />
        </mxCell>
        <mxCell id="glqgW6hR8bMLOD4vA2c3-26" style="shape=partialRectangle;html=1;whiteSpace=wrap;connectable=0;strokeColor=inherit;overflow=hidden;fillColor=none;top=0;left=0;bottom=0;right=0;pointerEvents=1;fontSize=16;" parent="glqgW6hR8bMLOD4vA2c3-25" vertex="1">
          <mxGeometry width="50" height="40" as="geometry">
            <mxRectangle width="50" height="40" as="alternateBounds" />
          </mxGeometry>
        </mxCell>
        <mxCell id="glqgW6hR8bMLOD4vA2c3-27" value="&lt;font style=&quot;font-size: 30px;&quot;&gt;5566&lt;/font&gt;" style="shape=partialRectangle;html=1;whiteSpace=wrap;connectable=0;strokeColor=inherit;overflow=hidden;fillColor=none;top=0;left=0;bottom=0;right=0;pointerEvents=1;fontSize=16;" parent="glqgW6hR8bMLOD4vA2c3-25" vertex="1">
          <mxGeometry x="50" width="190" height="40" as="geometry">
            <mxRectangle width="190" height="40" as="alternateBounds" />
          </mxGeometry>
        </mxCell>
        <mxCell id="glqgW6hR8bMLOD4vA2c3-28" value="&lt;span style=&quot;font-size: 30px;&quot;&gt;物々交換Pay&lt;/span&gt;" style="shape=partialRectangle;html=1;whiteSpace=wrap;connectable=0;strokeColor=inherit;overflow=hidden;fillColor=none;top=0;left=0;bottom=0;right=0;pointerEvents=1;fontSize=16;align=left;" parent="glqgW6hR8bMLOD4vA2c3-25" vertex="1">
          <mxGeometry x="240" width="496" height="40" as="geometry">
            <mxRectangle width="496" height="40" as="alternateBounds" />
          </mxGeometry>
        </mxCell>
        <mxCell id="glqgW6hR8bMLOD4vA2c3-37" value="&lt;font style=&quot;font-size: 84px;&quot;&gt;○&lt;/font&gt;" style="text;html=1;strokeColor=none;fillColor=none;align=center;verticalAlign=middle;whiteSpace=wrap;rounded=0;fontSize=60;" parent="cFaB45KztUIKXS-_cTrr-14" vertex="1">
          <mxGeometry x="25" y="441" width="60" height="30" as="geometry" />
        </mxCell>
        <mxCell id="glqgW6hR8bMLOD4vA2c3-38" value="&lt;font style=&quot;font-size: 84px;&quot;&gt;○&lt;/font&gt;" style="text;html=1;strokeColor=none;fillColor=none;align=center;verticalAlign=middle;whiteSpace=wrap;rounded=0;fontSize=60;" parent="cFaB45KztUIKXS-_cTrr-14" vertex="1">
          <mxGeometry x="25" y="480" width="60" height="30" as="geometry" />
        </mxCell>
        <mxCell id="glqgW6hR8bMLOD4vA2c3-39" value="&lt;font style=&quot;font-size: 84px;&quot;&gt;○&lt;/font&gt;" style="text;html=1;strokeColor=none;fillColor=none;align=center;verticalAlign=middle;whiteSpace=wrap;rounded=0;fontSize=60;" parent="cFaB45KztUIKXS-_cTrr-14" vertex="1">
          <mxGeometry x="24" y="520" width="60" height="30" as="geometry" />
        </mxCell>
        <mxCell id="glqgW6hR8bMLOD4vA2c3-40" value="&lt;font style=&quot;font-size: 48px;&quot;&gt;●&lt;/font&gt;" style="text;html=1;strokeColor=none;fillColor=none;align=center;verticalAlign=middle;whiteSpace=wrap;rounded=0;fontSize=48;" parent="cFaB45KztUIKXS-_cTrr-14" vertex="1">
          <mxGeometry x="24" y="522" width="60" height="30" as="geometry" />
        </mxCell>
        <mxCell id="glqgW6hR8bMLOD4vA2c3-41" value="&lt;font style=&quot;font-size: 84px;&quot;&gt;○&lt;/font&gt;" style="text;html=1;strokeColor=none;fillColor=none;align=center;verticalAlign=middle;whiteSpace=wrap;rounded=0;fontSize=60;" parent="cFaB45KztUIKXS-_cTrr-14" vertex="1">
          <mxGeometry x="25" y="560" width="60" height="30" as="geometry" />
        </mxCell>
        <mxCell id="glqgW6hR8bMLOD4vA2c3-47" value="&lt;div style=&quot;&quot;&gt;&lt;font style=&quot;font-size: 30px;&quot;&gt;スクロール&lt;/font&gt;&lt;/div&gt;" style="rounded=0;whiteSpace=wrap;html=1;align=left;verticalAlign=top;fillColor=#FFFFCC;" parent="cFaB45KztUIKXS-_cTrr-14" vertex="1">
          <mxGeometry x="22" y="602" width="1508" height="48" as="geometry" />
        </mxCell>
        <mxCell id="glqgW6hR8bMLOD4vA2c3-48" value="&lt;div style=&quot;&quot;&gt;&lt;br&gt;&lt;/div&gt;" style="rounded=0;whiteSpace=wrap;html=1;align=left;verticalAlign=top;fillColor=#FFFF66;" parent="cFaB45KztUIKXS-_cTrr-14" vertex="1">
          <mxGeometry x="222" y="611" width="290" height="29" as="geometry" />
        </mxCell>
        <mxCell id="MmM4sdzbBg2WOu6LbQjL-0" value="&lt;span style=&quot;font-size: 30px;&quot;&gt;各種Pay検索条件&lt;/span&gt;" style="rounded=0;whiteSpace=wrap;html=1;align=left;dashed=1;dashPattern=8 8;verticalAlign=bottom;" parent="cFaB45KztUIKXS-_cTrr-14" vertex="1">
          <mxGeometry x="27" y="81" width="310" height="46" as="geometry" />
        </mxCell>
        <mxCell id="i52_y_vSOhC8-coXRYyu-0" value="&lt;span style=&quot;font-size: 30px;&quot;&gt;新規行追加&lt;/span&gt;" style="rounded=1;whiteSpace=wrap;html=1;" vertex="1" parent="cFaB45KztUIKXS-_cTrr-14">
          <mxGeometry x="53" y="750" width="287" height="51" as="geometry" />
        </mxCell>
        <mxCell id="i52_y_vSOhC8-coXRYyu-1" value="&lt;span style=&quot;font-size: 30px; text-align: center;&quot;&gt;4455&lt;/span&gt;&lt;span style=&quot;font-size: 30px;&quot;&gt;&lt;br&gt;&lt;/span&gt;" style="rounded=0;whiteSpace=wrap;html=1;align=right;verticalAlign=top;" vertex="1" parent="cFaB45KztUIKXS-_cTrr-14">
          <mxGeometry x="370" y="820" width="250" height="50" as="geometry" />
        </mxCell>
        <mxCell id="i52_y_vSOhC8-coXRYyu-2" value="&lt;span style=&quot;font-size: 30px;&quot;&gt;各種Pay&lt;/span&gt;" style="rounded=0;whiteSpace=wrap;html=1;align=right;dashed=1;dashPattern=8 8;verticalAlign=top;" vertex="1" parent="cFaB45KztUIKXS-_cTrr-14">
          <mxGeometry x="39" y="819" width="310" height="51" as="geometry" />
        </mxCell>
        <mxCell id="i52_y_vSOhC8-coXRYyu-3" value="&lt;span style=&quot;font-size: 30px;&quot;&gt;きつねが木の葉でお支払いPay&lt;/span&gt;" style="rounded=0;whiteSpace=wrap;html=1;align=left;verticalAlign=top;" vertex="1" parent="cFaB45KztUIKXS-_cTrr-14">
          <mxGeometry x="650" y="820" width="620" height="50" as="geometry" />
        </mxCell>
        <mxCell id="i52_y_vSOhC8-coXRYyu-7" value="&lt;span style=&quot;font-size: 30px;&quot;&gt;保存&lt;/span&gt;" style="rounded=1;whiteSpace=wrap;html=1;strokeWidth=3;" vertex="1" parent="cFaB45KztUIKXS-_cTrr-14">
          <mxGeometry x="1350" y="1580" width="210" height="60" as="geometry" />
        </mxCell>
        <mxCell id="i52_y_vSOhC8-coXRYyu-8" value="&lt;span style=&quot;font-size: 30px;&quot;&gt;キャンセル&lt;/span&gt;" style="rounded=1;whiteSpace=wrap;html=1;strokeWidth=3;" vertex="1" parent="cFaB45KztUIKXS-_cTrr-14">
          <mxGeometry x="1120" y="1580" width="210" height="60" as="geometry" />
        </mxCell>
        <mxCell id="i52_y_vSOhC8-coXRYyu-9" value="&lt;span style=&quot;font-size: 30px;&quot;&gt;CSV読取り紐づけ申請&lt;/span&gt;" style="rounded=0;whiteSpace=wrap;html=1;align=left;dashed=1;dashPattern=8 8;verticalAlign=top;" vertex="1" parent="cFaB45KztUIKXS-_cTrr-14">
          <mxGeometry x="39" y="899" width="310" height="51" as="geometry" />
        </mxCell>
        <mxCell id="i52_y_vSOhC8-coXRYyu-10" value="&lt;span style=&quot;font-size: 30px;&quot;&gt;▼1日付&lt;/span&gt;" style="rounded=0;whiteSpace=wrap;html=1;align=left;" vertex="1" parent="cFaB45KztUIKXS-_cTrr-14">
          <mxGeometry x="87" y="1196" width="137" height="48" as="geometry" />
        </mxCell>
        <mxCell id="i52_y_vSOhC8-coXRYyu-11" value="&lt;span style=&quot;font-size: 30px;&quot;&gt;Upload&lt;/span&gt;" style="rounded=1;whiteSpace=wrap;html=1;fillColor=#FFFFFF;strokeWidth=3;" vertex="1" parent="cFaB45KztUIKXS-_cTrr-14">
          <mxGeometry x="1300" y="1025" width="210" height="60" as="geometry" />
        </mxCell>
        <mxCell id="i52_y_vSOhC8-coXRYyu-12" value="&lt;span style=&quot;font-size: 30px;&quot;&gt;サンプルとなるcsvファイルを表示&lt;/span&gt;" style="text;html=1;strokeColor=none;fillColor=none;align=left;verticalAlign=middle;whiteSpace=wrap;rounded=0;" vertex="1" parent="cFaB45KztUIKXS-_cTrr-14">
          <mxGeometry x="34" y="970" width="600" height="40" as="geometry" />
        </mxCell>
        <mxCell id="i52_y_vSOhC8-coXRYyu-13" value="" style="rounded=0;whiteSpace=wrap;html=1;strokeWidth=3;" vertex="1" parent="cFaB45KztUIKXS-_cTrr-14">
          <mxGeometry x="64" y="1025" width="1203" height="60" as="geometry" />
        </mxCell>
        <mxCell id="i52_y_vSOhC8-coXRYyu-14" value="" style="childLayout=tableLayout;recursiveResize=0;shadow=0;fillColor=none;" vertex="1" parent="cFaB45KztUIKXS-_cTrr-14">
          <mxGeometry x="84" y="1189" width="1360" height="240" as="geometry" />
        </mxCell>
        <mxCell id="i52_y_vSOhC8-coXRYyu-15" style="shape=tableRow;horizontal=0;startSize=0;swimlaneHead=0;swimlaneBody=0;top=0;left=0;bottom=0;right=0;dropTarget=0;collapsible=0;recursiveResize=0;expand=0;fontStyle=0;fillColor=none;strokeColor=inherit;" vertex="1" parent="i52_y_vSOhC8-coXRYyu-14">
          <mxGeometry width="1360" height="60" as="geometry" />
        </mxCell>
        <mxCell id="i52_y_vSOhC8-coXRYyu-16" value="" style="connectable=0;recursiveResize=0;strokeColor=inherit;fillColor=none;align=center;whiteSpace=wrap;html=1;" vertex="1" parent="i52_y_vSOhC8-coXRYyu-15">
          <mxGeometry width="160" height="60" as="geometry">
            <mxRectangle width="160" height="60" as="alternateBounds" />
          </mxGeometry>
        </mxCell>
        <mxCell id="i52_y_vSOhC8-coXRYyu-17" style="connectable=0;recursiveResize=0;strokeColor=inherit;fillColor=none;align=center;whiteSpace=wrap;html=1;" vertex="1" parent="i52_y_vSOhC8-coXRYyu-15">
          <mxGeometry x="160" width="190" height="60" as="geometry">
            <mxRectangle width="190" height="60" as="alternateBounds" />
          </mxGeometry>
        </mxCell>
        <mxCell id="i52_y_vSOhC8-coXRYyu-18" style="connectable=0;recursiveResize=0;strokeColor=inherit;fillColor=none;align=center;whiteSpace=wrap;html=1;" vertex="1" parent="i52_y_vSOhC8-coXRYyu-15">
          <mxGeometry x="350" width="170" height="60" as="geometry">
            <mxRectangle width="170" height="60" as="alternateBounds" />
          </mxGeometry>
        </mxCell>
        <mxCell id="i52_y_vSOhC8-coXRYyu-19" style="connectable=0;recursiveResize=0;strokeColor=inherit;fillColor=none;align=center;whiteSpace=wrap;html=1;" vertex="1" parent="i52_y_vSOhC8-coXRYyu-15">
          <mxGeometry x="520" width="258" height="60" as="geometry">
            <mxRectangle width="258" height="60" as="alternateBounds" />
          </mxGeometry>
        </mxCell>
        <mxCell id="i52_y_vSOhC8-coXRYyu-20" style="connectable=0;recursiveResize=0;strokeColor=inherit;fillColor=none;align=center;whiteSpace=wrap;html=1;" vertex="1" parent="i52_y_vSOhC8-coXRYyu-15">
          <mxGeometry x="778" width="194" height="60" as="geometry">
            <mxRectangle width="194" height="60" as="alternateBounds" />
          </mxGeometry>
        </mxCell>
        <mxCell id="i52_y_vSOhC8-coXRYyu-21" style="connectable=0;recursiveResize=0;strokeColor=inherit;fillColor=none;align=center;whiteSpace=wrap;html=1;" vertex="1" parent="i52_y_vSOhC8-coXRYyu-15">
          <mxGeometry x="972" width="194" height="60" as="geometry">
            <mxRectangle width="194" height="60" as="alternateBounds" />
          </mxGeometry>
        </mxCell>
        <mxCell id="i52_y_vSOhC8-coXRYyu-22" style="connectable=0;recursiveResize=0;strokeColor=inherit;fillColor=none;align=center;whiteSpace=wrap;html=1;" vertex="1" parent="i52_y_vSOhC8-coXRYyu-15">
          <mxGeometry x="1166" width="194" height="60" as="geometry">
            <mxRectangle width="194" height="60" as="alternateBounds" />
          </mxGeometry>
        </mxCell>
        <mxCell id="i52_y_vSOhC8-coXRYyu-23" value="" style="shape=tableRow;horizontal=0;startSize=0;swimlaneHead=0;swimlaneBody=0;top=0;left=0;bottom=0;right=0;dropTarget=0;collapsible=0;recursiveResize=0;expand=0;fontStyle=0;fillColor=none;strokeColor=inherit;" vertex="1" parent="i52_y_vSOhC8-coXRYyu-14">
          <mxGeometry y="60" width="1360" height="60" as="geometry" />
        </mxCell>
        <mxCell id="i52_y_vSOhC8-coXRYyu-24" value="&lt;font style=&quot;font-size: 30px;&quot;&gt;年月日&lt;br&gt;&lt;/font&gt;" style="connectable=0;recursiveResize=0;strokeColor=inherit;fillColor=none;align=center;whiteSpace=wrap;html=1;" vertex="1" parent="i52_y_vSOhC8-coXRYyu-23">
          <mxGeometry width="160" height="60" as="geometry">
            <mxRectangle width="160" height="60" as="alternateBounds" />
          </mxGeometry>
        </mxCell>
        <mxCell id="i52_y_vSOhC8-coXRYyu-25" value="&lt;font style=&quot;font-size: 30px;&quot;&gt;お引出し&lt;/font&gt;" style="connectable=0;recursiveResize=0;strokeColor=inherit;fillColor=none;align=center;whiteSpace=wrap;html=1;" vertex="1" parent="i52_y_vSOhC8-coXRYyu-23">
          <mxGeometry x="160" width="190" height="60" as="geometry">
            <mxRectangle width="190" height="60" as="alternateBounds" />
          </mxGeometry>
        </mxCell>
        <mxCell id="i52_y_vSOhC8-coXRYyu-26" value="&lt;font style=&quot;font-size: 30px;&quot;&gt;お預入れ&lt;/font&gt;" style="connectable=0;recursiveResize=0;strokeColor=inherit;fillColor=none;align=center;whiteSpace=wrap;html=1;" vertex="1" parent="i52_y_vSOhC8-coXRYyu-23">
          <mxGeometry x="350" width="170" height="60" as="geometry">
            <mxRectangle width="170" height="60" as="alternateBounds" />
          </mxGeometry>
        </mxCell>
        <mxCell id="i52_y_vSOhC8-coXRYyu-27" value="&lt;font style=&quot;font-size: 30px;&quot;&gt;お取り扱い内容&lt;/font&gt;" style="connectable=0;recursiveResize=0;strokeColor=inherit;fillColor=none;align=center;whiteSpace=wrap;html=1;" vertex="1" parent="i52_y_vSOhC8-coXRYyu-23">
          <mxGeometry x="520" width="258" height="60" as="geometry">
            <mxRectangle width="258" height="60" as="alternateBounds" />
          </mxGeometry>
        </mxCell>
        <mxCell id="i52_y_vSOhC8-coXRYyu-28" value="&lt;font style=&quot;font-size: 30px;&quot;&gt;残高&lt;/font&gt;" style="connectable=0;recursiveResize=0;strokeColor=inherit;fillColor=none;align=center;whiteSpace=wrap;html=1;" vertex="1" parent="i52_y_vSOhC8-coXRYyu-23">
          <mxGeometry x="778" width="194" height="60" as="geometry">
            <mxRectangle width="194" height="60" as="alternateBounds" />
          </mxGeometry>
        </mxCell>
        <mxCell id="i52_y_vSOhC8-coXRYyu-29" value="&lt;font style=&quot;font-size: 30px;&quot;&gt;メモ&lt;/font&gt;" style="connectable=0;recursiveResize=0;strokeColor=inherit;fillColor=none;align=center;whiteSpace=wrap;html=1;" vertex="1" parent="i52_y_vSOhC8-coXRYyu-23">
          <mxGeometry x="972" width="194" height="60" as="geometry">
            <mxRectangle width="194" height="60" as="alternateBounds" />
          </mxGeometry>
        </mxCell>
        <mxCell id="i52_y_vSOhC8-coXRYyu-30" value="&lt;font style=&quot;font-size: 30px;&quot;&gt;ラベル&lt;/font&gt;" style="connectable=0;recursiveResize=0;strokeColor=inherit;fillColor=none;align=center;whiteSpace=wrap;html=1;" vertex="1" parent="i52_y_vSOhC8-coXRYyu-23">
          <mxGeometry x="1166" width="194" height="60" as="geometry">
            <mxRectangle width="194" height="60" as="alternateBounds" />
          </mxGeometry>
        </mxCell>
        <mxCell id="i52_y_vSOhC8-coXRYyu-31" style="shape=tableRow;horizontal=0;startSize=0;swimlaneHead=0;swimlaneBody=0;top=0;left=0;bottom=0;right=0;dropTarget=0;collapsible=0;recursiveResize=0;expand=0;fontStyle=0;fillColor=none;strokeColor=inherit;" vertex="1" parent="i52_y_vSOhC8-coXRYyu-14">
          <mxGeometry y="120" width="1360" height="60" as="geometry" />
        </mxCell>
        <mxCell id="i52_y_vSOhC8-coXRYyu-32" value="&lt;font style=&quot;font-size: 30px;&quot;&gt;2022.09.01&lt;/font&gt;" style="connectable=0;recursiveResize=0;strokeColor=inherit;fillColor=none;align=center;whiteSpace=wrap;html=1;" vertex="1" parent="i52_y_vSOhC8-coXRYyu-31">
          <mxGeometry width="160" height="60" as="geometry">
            <mxRectangle width="160" height="60" as="alternateBounds" />
          </mxGeometry>
        </mxCell>
        <mxCell id="i52_y_vSOhC8-coXRYyu-33" value="" style="connectable=0;recursiveResize=0;strokeColor=inherit;fillColor=none;align=center;whiteSpace=wrap;html=1;" vertex="1" parent="i52_y_vSOhC8-coXRYyu-31">
          <mxGeometry x="160" width="190" height="60" as="geometry">
            <mxRectangle width="190" height="60" as="alternateBounds" />
          </mxGeometry>
        </mxCell>
        <mxCell id="i52_y_vSOhC8-coXRYyu-34" value="&lt;font style=&quot;font-size: 30px;&quot;&gt;200,000&lt;/font&gt;" style="connectable=0;recursiveResize=0;strokeColor=inherit;fillColor=none;align=right;whiteSpace=wrap;html=1;" vertex="1" parent="i52_y_vSOhC8-coXRYyu-31">
          <mxGeometry x="350" width="170" height="60" as="geometry">
            <mxRectangle width="170" height="60" as="alternateBounds" />
          </mxGeometry>
        </mxCell>
        <mxCell id="i52_y_vSOhC8-coXRYyu-35" value="&lt;span style=&quot;font-size: 30px;&quot;&gt;振込　会社&lt;/span&gt;" style="connectable=0;recursiveResize=0;strokeColor=inherit;fillColor=none;align=left;whiteSpace=wrap;html=1;" vertex="1" parent="i52_y_vSOhC8-coXRYyu-31">
          <mxGeometry x="520" width="258" height="60" as="geometry">
            <mxRectangle width="258" height="60" as="alternateBounds" />
          </mxGeometry>
        </mxCell>
        <mxCell id="i52_y_vSOhC8-coXRYyu-36" value="&lt;font style=&quot;font-size: 30px;&quot;&gt;246,802&lt;/font&gt;" style="connectable=0;recursiveResize=0;strokeColor=inherit;fillColor=none;align=right;whiteSpace=wrap;html=1;" vertex="1" parent="i52_y_vSOhC8-coXRYyu-31">
          <mxGeometry x="778" width="194" height="60" as="geometry">
            <mxRectangle width="194" height="60" as="alternateBounds" />
          </mxGeometry>
        </mxCell>
        <mxCell id="i52_y_vSOhC8-coXRYyu-37" style="connectable=0;recursiveResize=0;strokeColor=inherit;fillColor=none;align=center;whiteSpace=wrap;html=1;" vertex="1" parent="i52_y_vSOhC8-coXRYyu-31">
          <mxGeometry x="972" width="194" height="60" as="geometry">
            <mxRectangle width="194" height="60" as="alternateBounds" />
          </mxGeometry>
        </mxCell>
        <mxCell id="i52_y_vSOhC8-coXRYyu-38" style="connectable=0;recursiveResize=0;strokeColor=inherit;fillColor=none;align=center;whiteSpace=wrap;html=1;" vertex="1" parent="i52_y_vSOhC8-coXRYyu-31">
          <mxGeometry x="1166" width="194" height="60" as="geometry">
            <mxRectangle width="194" height="60" as="alternateBounds" />
          </mxGeometry>
        </mxCell>
        <mxCell id="i52_y_vSOhC8-coXRYyu-39" style="shape=tableRow;horizontal=0;startSize=0;swimlaneHead=0;swimlaneBody=0;top=0;left=0;bottom=0;right=0;dropTarget=0;collapsible=0;recursiveResize=0;expand=0;fontStyle=0;fillColor=none;strokeColor=inherit;" vertex="1" parent="i52_y_vSOhC8-coXRYyu-14">
          <mxGeometry y="180" width="1360" height="60" as="geometry" />
        </mxCell>
        <mxCell id="i52_y_vSOhC8-coXRYyu-40" value="&lt;font style=&quot;font-size: 30px;&quot;&gt;2022.09.01&lt;/font&gt;" style="connectable=0;recursiveResize=0;strokeColor=inherit;fillColor=none;align=center;whiteSpace=wrap;html=1;" vertex="1" parent="i52_y_vSOhC8-coXRYyu-39">
          <mxGeometry width="160" height="60" as="geometry">
            <mxRectangle width="160" height="60" as="alternateBounds" />
          </mxGeometry>
        </mxCell>
        <mxCell id="i52_y_vSOhC8-coXRYyu-41" value="&lt;font style=&quot;font-size: 30px;&quot;&gt;1,357&lt;/font&gt;" style="connectable=0;recursiveResize=0;strokeColor=inherit;fillColor=none;align=right;whiteSpace=wrap;html=1;" vertex="1" parent="i52_y_vSOhC8-coXRYyu-39">
          <mxGeometry x="160" width="190" height="60" as="geometry">
            <mxRectangle width="190" height="60" as="alternateBounds" />
          </mxGeometry>
        </mxCell>
        <mxCell id="i52_y_vSOhC8-coXRYyu-42" value="" style="connectable=0;recursiveResize=0;strokeColor=inherit;fillColor=none;align=center;whiteSpace=wrap;html=1;" vertex="1" parent="i52_y_vSOhC8-coXRYyu-39">
          <mxGeometry x="350" width="170" height="60" as="geometry">
            <mxRectangle width="170" height="60" as="alternateBounds" />
          </mxGeometry>
        </mxCell>
        <mxCell id="i52_y_vSOhC8-coXRYyu-43" value="&lt;font style=&quot;font-size: 30px;&quot;&gt;引落し&lt;/font&gt;" style="connectable=0;recursiveResize=0;strokeColor=inherit;fillColor=none;align=left;whiteSpace=wrap;html=1;" vertex="1" parent="i52_y_vSOhC8-coXRYyu-39">
          <mxGeometry x="520" width="258" height="60" as="geometry">
            <mxRectangle width="258" height="60" as="alternateBounds" />
          </mxGeometry>
        </mxCell>
        <mxCell id="i52_y_vSOhC8-coXRYyu-44" value="&lt;font style=&quot;font-size: 30px;&quot;&gt;135,791&lt;/font&gt;" style="connectable=0;recursiveResize=0;strokeColor=inherit;fillColor=none;align=right;whiteSpace=wrap;html=1;" vertex="1" parent="i52_y_vSOhC8-coXRYyu-39">
          <mxGeometry x="778" width="194" height="60" as="geometry">
            <mxRectangle width="194" height="60" as="alternateBounds" />
          </mxGeometry>
        </mxCell>
        <mxCell id="i52_y_vSOhC8-coXRYyu-45" style="connectable=0;recursiveResize=0;strokeColor=inherit;fillColor=none;align=center;whiteSpace=wrap;html=1;" vertex="1" parent="i52_y_vSOhC8-coXRYyu-39">
          <mxGeometry x="972" width="194" height="60" as="geometry">
            <mxRectangle width="194" height="60" as="alternateBounds" />
          </mxGeometry>
        </mxCell>
        <mxCell id="i52_y_vSOhC8-coXRYyu-46" style="connectable=0;recursiveResize=0;strokeColor=inherit;fillColor=none;align=center;whiteSpace=wrap;html=1;" vertex="1" parent="i52_y_vSOhC8-coXRYyu-39">
          <mxGeometry x="1166" width="194" height="60" as="geometry">
            <mxRectangle width="194" height="60" as="alternateBounds" />
          </mxGeometry>
        </mxCell>
        <mxCell id="i52_y_vSOhC8-coXRYyu-47" value="&lt;span style=&quot;font-size: 30px;&quot;&gt;▼支出&lt;/span&gt;" style="rounded=0;whiteSpace=wrap;html=1;align=left;" vertex="1" parent="cFaB45KztUIKXS-_cTrr-14">
          <mxGeometry x="257" y="1196" width="137" height="48" as="geometry" />
        </mxCell>
        <mxCell id="i52_y_vSOhC8-coXRYyu-48" value="&lt;span style=&quot;font-size: 30px;&quot;&gt;▼収入&lt;/span&gt;" style="rounded=0;whiteSpace=wrap;html=1;align=left;" vertex="1" parent="cFaB45KztUIKXS-_cTrr-14">
          <mxGeometry x="454" y="1196" width="137" height="48" as="geometry" />
        </mxCell>
        <mxCell id="i52_y_vSOhC8-coXRYyu-49" value="&lt;span style=&quot;font-size: 30px;&quot;&gt;▼日付&lt;/span&gt;" style="rounded=0;whiteSpace=wrap;html=1;align=left;" vertex="1" parent="cFaB45KztUIKXS-_cTrr-14">
          <mxGeometry x="617" y="1196" width="137" height="48" as="geometry" />
        </mxCell>
        <mxCell id="i52_y_vSOhC8-coXRYyu-50" value="&lt;span style=&quot;font-size: 30px;&quot;&gt;▼日付&lt;/span&gt;" style="rounded=0;whiteSpace=wrap;html=1;align=left;" vertex="1" parent="cFaB45KztUIKXS-_cTrr-14">
          <mxGeometry x="869" y="1197" width="137" height="48" as="geometry" />
        </mxCell>
        <mxCell id="i52_y_vSOhC8-coXRYyu-51" value="&lt;span style=&quot;font-size: 30px;&quot;&gt;▼なし&lt;/span&gt;" style="rounded=0;whiteSpace=wrap;html=1;align=left;" vertex="1" parent="cFaB45KztUIKXS-_cTrr-14">
          <mxGeometry x="1065" y="1196" width="137" height="48" as="geometry" />
        </mxCell>
        <mxCell id="i52_y_vSOhC8-coXRYyu-52" value="&lt;span style=&quot;font-size: 30px;&quot;&gt;▼日付&lt;/span&gt;" style="rounded=0;whiteSpace=wrap;html=1;align=left;" vertex="1" parent="cFaB45KztUIKXS-_cTrr-14">
          <mxGeometry x="1267" y="1197" width="137" height="48" as="geometry" />
        </mxCell>
        <mxCell id="i52_y_vSOhC8-coXRYyu-54" value="&lt;div style=&quot;&quot;&gt;&lt;font style=&quot;font-size: 30px;&quot;&gt;スクロール&lt;/font&gt;&lt;/div&gt;" style="rounded=0;whiteSpace=wrap;html=1;align=left;verticalAlign=top;fillColor=#FFFFCC;" vertex="1" parent="cFaB45KztUIKXS-_cTrr-14">
          <mxGeometry x="83" y="1432" width="1361" height="48" as="geometry" />
        </mxCell>
        <mxCell id="i52_y_vSOhC8-coXRYyu-55" value="&lt;div style=&quot;&quot;&gt;&lt;br&gt;&lt;/div&gt;" style="rounded=0;whiteSpace=wrap;html=1;align=left;verticalAlign=top;fillColor=#FFFF66;" vertex="1" parent="cFaB45KztUIKXS-_cTrr-14">
          <mxGeometry x="267" y="1441" width="290" height="29" as="geometry" />
        </mxCell>
        <mxCell id="i52_y_vSOhC8-coXRYyu-56" value="&lt;span style=&quot;font-size: 30px;&quot;&gt;▼日付&lt;/span&gt;" style="rounded=0;whiteSpace=wrap;html=1;align=left;" vertex="1" parent="cFaB45KztUIKXS-_cTrr-14">
          <mxGeometry x="86" y="1196" width="137" height="48" as="geometry" />
        </mxCell>
        <mxCell id="i52_y_vSOhC8-coXRYyu-59" value="&lt;span style=&quot;font-size: 30px;&quot;&gt;☑1行目はヘッダなので取り込まない&lt;/span&gt;" style="rounded=0;whiteSpace=wrap;html=1;align=left;dashed=1;dashPattern=8 8;verticalAlign=bottom;" vertex="1" parent="cFaB45KztUIKXS-_cTrr-14">
          <mxGeometry x="364" y="1119" width="760" height="46" as="geometry" />
        </mxCell>
      </root>
    </mxGraphModel>
  </diagram>
</mxfile>
